<svg width="221" height="59" viewBox="0 0 221 59" fill="none" xmlns="http://www.w3.org/2000/svg">
<g clip-path="url(#clip0_0_212)">
<path d="M0 0H60V59H0V0Z" fill="white"/>
<path d="M43.8916 8.48905L43.8894 7.43984C43.8895 7.19771 43.872 6.94081 43.9012 6.70047C43.9511 6.28919 44.1821 5.87275 44.485 5.57997C44.8693 5.20845 45.4238 4.997 45.9703 5.00003C46.5294 5.00313 47.0191 5.242 47.4053 5.61648C47.9122 6.10815 47.9372 6.64983 47.9403 7.29882L47.9466 8.49106L50.9462 8.49883C51.6791 8.5 52.4877 8.42628 53.2001 8.59407C53.8779 8.75371 54.4644 9.08276 54.9593 9.54971C55.447 10.0099 55.7885 10.6234 55.9255 11.2641C56.0264 11.7355 55.9946 12.2389 55.9939 12.7178L55.9902 14.5712L56 20.9724L4.00815 21L4.00773 14.6617L4.00708 12.706C4.00723 12.3642 3.98245 12.001 4.02474 11.6623C4.13072 10.8135 4.52429 10.0367 5.17605 9.44429C5.62168 9.03928 6.17234 8.7418 6.76938 8.59458C7.58138 8.39431 8.50194 8.472 9.33733 8.47256L12.1267 8.4853L12.1255 7.3944C12.1285 6.69549 12.1365 6.12103 12.6831 5.59522C13.0834 5.21016 13.5965 5.00791 14.1653 5.01235C14.7231 5.0167 15.229 5.22687 15.6143 5.60978C16.1992 6.19098 16.1732 6.81198 16.1741 7.5651C16.1745 7.86297 16.193 8.17045 16.1737 8.46669L16.1713 8.48133L22.7012 8.47094L22.7008 7.46941C22.7012 7.22772 22.6806 6.96468 22.715 6.72545C22.7764 6.29814 22.9963 5.89344 23.3125 5.58682C23.6832 5.22739 24.2127 5.02225 24.7411 5.0181C25.3154 5.01359 25.8303 5.22414 26.232 5.60976C26.5238 5.8898 26.7675 6.28053 26.8091 6.67951C26.834 6.91807 26.8181 7.17155 26.8192 7.41134L26.8233 8.47737L33.2168 8.48642L33.202 7.34303C33.2004 7.06395 33.1796 6.7714 33.2527 6.49874C33.3422 6.16488 33.5616 5.83897 33.809 5.58967C34.1567 5.23942 34.7003 5.01363 35.2058 5.00705C35.7804 4.99959 36.32 5.20655 36.7266 5.59175C37.2833 6.11905 37.3034 6.70639 37.3044 7.41067L37.3036 8.48977L43.8916 8.48905Z" fill="url(#paint0_linear_0_212)"/>
<path d="M16.0852 10L16.3288 10.2776C16.8517 10.893 17.0673 11.6194 16.9818 12.4135C16.8969 13.2016 16.4863 13.8879 15.8516 14.3805C15.2564 14.8425 14.4726 15.0673 13.7147 14.9823C12.9032 14.8913 12.1764 14.4795 11.6767 13.8511C11.2261 13.2844 10.9147 12.4766 11.0209 11.7524L11.0288 11.701C11.1275 11.032 11.4747 10.5086 11.9358 10.0204L11.9502 11.3656C11.9593 12.1883 11.9469 12.8414 12.5898 13.4598C13.0172 13.8708 13.5218 14.0445 14.1158 14.0391C14.6344 14.0343 15.1389 13.808 15.5001 13.451C15.7995 13.1551 16.0246 12.7294 16.0739 12.315C16.1057 12.0474 16.0805 11.7463 16.0811 11.4753L16.0852 10Z" fill="white"/>
<path d="M27.0545 10L27.2205 10.1553C27.6107 10.5308 27.8816 11.0129 27.9634 11.5438L27.971 11.5907C28.0791 12.314 27.8819 13.1736 27.4267 13.7592C26.9238 14.4063 26.2276 14.8607 25.3961 14.973C24.6049 15.0799 23.8217 14.8659 23.1895 14.3892C22.5466 13.9045 22.1184 13.2022 22.0213 12.4064C21.9334 11.6871 22.1175 10.9577 22.5828 10.39L22.9446 10.0197L22.9431 11.4878C22.9422 12.1911 22.9055 12.8549 23.4298 13.4077C23.829 13.8286 24.353 14.0664 24.9407 14.0817C25.4917 14.0961 26.002 13.8931 26.3983 13.5215C26.7575 13.1848 27.005 12.7715 27.0529 12.281C27.0801 12.0025 27.0517 11.7227 27.0498 11.4435L27.0545 10Z" fill="white"/>
<path d="M37.042 10C37.2178 10.1745 37.4042 10.3484 37.5493 10.5491C37.8395 10.9506 37.9991 11.4848 38 11.975C38.0014 12.7657 37.6918 13.5647 37.1191 14.1272C36.6256 14.6119 36.0144 14.8883 35.3272 14.9769C34.5643 15.0752 33.7658 14.8563 33.1635 14.3869C32.5447 13.9048 32.1031 13.1503 32.0183 12.3745C31.9413 11.6699 32.1043 10.9665 32.5684 10.4142L32.9383 10.0366L32.9409 11.4608C32.9393 11.7483 32.9146 12.0589 32.9552 12.3433L32.9626 12.3906C33.0247 12.8101 33.202 13.1563 33.4992 13.4626C33.8726 13.8476 34.3953 14.0994 34.942 14.1025C35.4987 14.1055 36.0781 13.8656 36.4689 13.4785C36.8188 13.1319 37.0357 12.6328 37.0651 12.1478C37.0806 11.8915 37.0438 11.6324 37.0408 11.3758L37.042 10Z" fill="white"/>
<path d="M48.0184 10C48.4725 10.3617 48.783 10.785 48.9187 11.3486C49.0942 12.0775 48.9866 12.923 48.5845 13.5671C48.1726 14.227 47.492 14.7401 46.7146 14.9195C45.9383 15.0985 45.1232 14.9789 44.4482 14.561C43.7419 14.1237 43.2436 13.4215 43.0691 12.625C42.9861 12.2458 42.9753 11.8532 43.0507 11.4722L43.0611 11.4163C43.1546 10.9297 43.4932 10.3214 43.9299 10.0477L43.9608 10.0291C44.01 10.4949 43.9847 11.0131 43.971 11.4823C43.9496 12.2165 43.9404 12.8547 44.4822 13.4326C44.8454 13.82 45.3506 14.0408 45.8872 14.063C46.4435 14.0859 46.9572 13.9345 47.371 13.5626C47.7023 13.2649 47.9827 12.849 48.0296 12.4023C48.0616 12.0969 48.023 11.7831 48.0175 11.4765L48.0184 10Z" fill="white"/>
<path d="M12.0183 8.50402L12.0171 7.40338C12.0201 6.69824 12.0279 6.11865 12.5643 5.58815C12.9571 5.19964 13.4606 4.99559 14.0187 5.00007C14.5661 5.00446 15.0626 5.21651 15.4407 5.60284C16.0146 6.18923 15.9891 6.81576 15.99 7.57561C15.9903 7.87613 16.0085 8.18636 15.9896 8.48524L15.9872 8.50002L15.9954 10.0953L15.9915 11.5215C15.9909 11.7834 16.0151 12.0746 15.9845 12.3333C15.9372 12.7338 15.7209 13.1453 15.4331 13.4314C15.086 13.7765 14.6013 13.9953 14.1029 13.9999C13.5321 14.0051 13.0472 13.8372 12.6365 13.4399C12.0187 12.8421 12.0306 12.2108 12.0219 11.4155L12.0081 10.1151C11.9907 9.95385 12.0068 9.77192 12.0069 9.60821L12.0183 8.50402Z" fill="url(#paint1_linear_0_212)"/>
<path d="M44.0384 8.50731L44.0363 7.45261C44.0364 7.20921 44.0195 6.95097 44.0478 6.70937C44.0961 6.29594 44.3198 5.87732 44.613 5.58301C44.9852 5.20954 45.522 4.99699 46.0512 5.00003C46.5926 5.00315 47.0668 5.24326 47.4407 5.61971C47.9316 6.11395 47.9557 6.65846 47.9587 7.31085L47.9648 8.50933C47.9895 8.98642 48.0257 9.51514 47.9728 9.98959L47.9719 11.4462C47.9772 11.7487 48.0148 12.0582 47.9837 12.3595C47.9381 12.8001 47.6654 13.2104 47.3432 13.5042C46.9409 13.871 46.4413 14.0204 45.9004 13.9978C45.3786 13.9759 44.8874 13.7581 44.5342 13.3759C44.0074 12.8058 44.0163 12.1762 44.0372 11.4519C44.0504 10.989 44.0751 10.4778 44.0273 10.0183L44.0248 9.9842C43.9784 9.50256 44.0055 8.99041 44.0384 8.50731Z" fill="url(#paint2_linear_0_212)"/>
<path d="M23.0106 8.47009L23.0102 7.46358C23.0106 7.22069 22.9907 6.95634 23.0238 6.71592C23.083 6.28648 23.2947 5.87977 23.5992 5.57162C23.9563 5.21041 24.4662 5.00425 24.975 5.00007C25.5282 4.99554 26.0241 5.20714 26.411 5.59467C26.6919 5.87611 26.9266 6.26878 26.9667 6.66974C26.9907 6.90949 26.9754 7.16423 26.9764 7.40522L26.9804 8.47655L26.9992 9.45884C26.9984 9.63674 27.008 9.82177 26.9768 9.99731L26.9722 11.4126C26.9741 11.6864 27.0016 11.9607 26.9753 12.2337C26.9289 12.7146 26.6895 13.1199 26.3422 13.45C25.9589 13.8143 25.4655 14.0134 24.9326 13.9993C24.3643 13.9843 23.8576 13.7511 23.4715 13.3384C22.9645 12.7965 23 12.1456 23.0008 11.456L23.0023 10.0166L23.0106 8.47009Z" fill="url(#paint3_linear_0_212)"/>
<path d="M33.0456 8.48964L33.0314 7.34294C33.03 7.06305 33.0101 6.76965 33.0798 6.49621C33.1652 6.16138 33.3745 5.83452 33.6106 5.5845C33.9423 5.23324 34.461 5.00679 34.9432 5.0002C35.4914 4.99271 36.0062 5.20027 36.3941 5.58658C36.9252 6.11541 36.9445 6.70446 36.9454 7.41077L36.9446 8.49301L36.9741 9.97756L36.9729 11.3265C36.9759 11.5781 37.0113 11.8322 36.9963 12.0834C36.968 12.559 36.7591 13.0484 36.4218 13.3882C36.0453 13.7678 35.4869 14.003 34.9505 14C34.4237 13.9969 33.9201 13.7501 33.5602 13.3726C33.2739 13.0722 33.103 12.7329 33.0431 12.3215L33.036 12.2752C32.9969 11.9963 33.0207 11.6918 33.0222 11.4099L33.0197 10.0134C33.0213 9.51627 32.9602 8.98053 33.0456 8.48964Z" fill="url(#paint4_linear_0_212)"/>
<path d="M4.01264 22.0063L55.9823 22L55.9968 42.1508L56 48.1601L55.9965 49.8063C55.996 50.16 56.0154 50.5311 55.9645 50.8812C55.8472 51.6873 55.4702 52.3518 54.9114 52.9457L54.8877 52.9692C54.3386 53.4951 53.6099 53.8622 52.8432 53.9545C52.3361 54.0156 51.7935 53.9814 51.2819 53.982L48.4701 53.9848L39.2078 53.9944L10.0486 54L8.41176 53.9959C7.91025 53.994 7.40539 54.0064 6.91428 53.8909C6.26699 53.7388 5.62436 53.3696 5.15859 52.9095C4.56456 52.3228 4.15198 51.5697 4.0315 50.7501C3.98236 50.4158 4.0052 50.0633 4.00594 49.7257L4.00646 48.0726L4.00739 42.2725L4.01264 22.0063Z" fill="url(#paint5_linear_0_212)"/>
<path d="M7.00672 24L52.9733 24.0035L52.9854 41.7131L52.9863 46.9062L52.992 48.274C52.995 48.5841 53.0162 48.9096 52.9741 49.217C52.9166 49.6369 52.6662 50.026 52.3916 50.3435C52.0579 50.6486 51.7053 50.863 51.2486 50.9495C50.8187 51.031 50.3344 50.9894 49.8964 50.9892L47.5434 50.9874L38.8587 50.9911L18.9588 50.9929L12.3244 50.9926L8.92525 50.9855C8.55075 50.9705 8.21952 50.8599 7.91187 50.6547C7.50494 50.3832 7.12055 49.901 7.0363 49.4173L7.02914 49.3729C6.98326 49.1032 7.00503 48.8125 7.00602 48.5389L7.00789 47.1519L7.01155 42.0535L7.00672 24Z" fill="white"/>
<path d="M43.6604 27.0166C44.0338 26.988 44.4196 27.0075 44.795 27.0073L46.8538 27.0069L47.9389 27.006C48.0817 27.006 48.2816 26.9831 48.4182 27.0266C48.643 27.0982 48.8097 27.2358 48.913 27.4473C48.9561 27.5358 48.9838 27.642 48.9876 27.7402L48.9799 30.5285L48.9898 31.6683C48.9931 31.8803 49.0096 32.104 48.992 32.3152C48.9875 32.369 48.9736 32.4182 48.9525 32.468L48.9353 32.5047L48.9192 32.5409C48.8146 32.7629 48.6072 32.8849 48.3829 32.961C48.1459 33.0189 47.8679 32.9928 47.624 32.9924L46.4298 32.992L44.7672 32.9947C44.463 32.995 44.1499 33.0099 43.8466 32.9883C43.7296 32.98 43.6191 32.9514 43.5129 32.9019C43.3009 32.8032 43.1443 32.6266 43.066 32.4077C43.0392 32.333 43.0221 32.2541 43.0178 32.1749C42.9767 31.4169 43.02 30.6328 43.0184 29.8716L43.0156 28.5186C43.0152 28.2706 43.0015 28.0139 43.0234 27.7672C43.0335 27.6532 43.069 27.537 43.1224 27.4355C43.2405 27.2112 43.425 27.0918 43.6604 27.0166Z" fill="url(#paint6_linear_0_212)"/>
<path d="M43.8161 35.0098C44.0721 34.9909 44.3386 35.0051 44.5956 35.0055L46.0036 35.008L47.4199 35.0118C47.6756 35.0126 47.9379 35.0004 48.1925 35.021C48.3032 35.0299 48.3889 35.0545 48.4876 35.104C48.726 35.2237 48.8729 35.4156 48.9544 35.6647C49.0286 35.8919 48.9904 36.1844 48.9885 36.4231L48.9879 37.509L48.9911 39.285C48.9913 39.5869 49.007 39.8976 48.9894 40.1988C48.9827 40.3129 48.9388 40.4298 48.8831 40.5289C48.7388 40.7858 48.4884 40.9281 48.2095 41L45.0926 40.9847C44.6889 40.986 44.2685 41.0102 43.8668 40.9809C43.7416 40.9718 43.6348 40.9457 43.523 40.8878C43.2665 40.755 43.1111 40.5372 43.0359 40.2661C42.9782 40.0577 43.007 39.7994 43.0085 39.5846L43.0093 38.5353L43.0096 36.7919C43.0099 36.4974 42.9925 36.1915 43.0161 35.8981C43.0286 35.7422 43.0645 35.6034 43.1461 35.4677C43.3023 35.2078 43.5298 35.0817 43.8161 35.0098Z" fill="url(#paint7_linear_0_212)"/>
<path d="M44 36L48 36.0209L47.9974 39.994L44.0022 40L44 36Z" fill="white"/>
<path d="M10.7501 27.021C11.0226 26.9961 11.3096 27.0113 11.5839 27.0108L13.0448 27.0079L15.0018 27.0047C15.3574 27.0043 15.7229 26.9904 16.0776 27.0125C16.1762 27.0187 16.2705 27.0418 16.3611 27.0762C16.6141 27.1722 16.8343 27.3489 16.9265 27.5799C17.0457 27.8786 16.9839 28.3337 16.9845 28.6549L16.9854 30.5315L16.9855 31.6412C16.985 31.8286 17.002 32.0307 16.979 32.2158C16.9685 32.3004 16.9232 32.3884 16.8803 32.4638C16.7366 32.7164 16.4863 32.8705 16.1897 32.9633C15.9268 33.0118 15.6262 32.9846 15.3568 32.9845L13.8557 32.9841L11.8608 32.9851C11.5326 32.9857 11.0668 33.0346 10.7554 32.9519C10.4828 32.8796 10.2375 32.7207 10.1073 32.4968C10.0501 32.3985 10.0151 32.2814 10.0063 32.1717C9.9904 31.9754 10.0094 31.7679 10.0114 31.5705L10.0158 30.447L10.0008 27.8508C10.0041 27.7568 10.0229 27.6607 10.0613 27.5726C10.1841 27.291 10.4475 27.1359 10.7501 27.021Z" fill="url(#paint8_linear_0_212)"/>
<path d="M31.0776 27.0112L32.221 27.0049C32.5831 27.0033 32.9614 26.9682 33.2966 27.1117C33.5917 27.2379 33.8254 27.4794 33.9246 27.75L33.9404 27.7952C34.0416 28.0778 33.9831 28.4926 33.984 28.791L33.9883 30.7027L33.9886 31.6445C33.9885 31.7931 34.0029 31.954 33.984 32.1016C33.9689 32.2187 33.9216 32.3412 33.8609 32.4468C33.721 32.6902 33.464 32.8605 33.1684 32.9417L33.1162 32.9553C32.8103 33.0369 32.368 32.982 32.0404 32.9813L29.9168 32.9771L28.8438 32.981C28.3244 32.9821 27.7268 33.0556 27.3278 32.6991C27.1058 32.5008 27.0106 32.2492 27.0076 31.9771L27.0051 29.1687L27.0034 28.253C27.0034 28.0895 26.989 27.9143 27.0196 27.7525C27.0547 27.5665 27.1461 27.4147 27.3029 27.2833C27.4561 27.1549 27.6685 27.0647 27.8782 27.0322C28.1827 26.9849 28.552 27.0205 28.8652 27.0198L31.0776 27.0112Z" fill="url(#paint9_linear_0_212)"/>
<path d="M31.6278 28.0108L33 28L32.9981 31.9966L29.3681 31.9952L28.4827 31.9978C28.3978 31.9972 28.2635 32.012 28.1925 31.9721C28.0982 31.9191 28.0398 31.8486 28.026 31.7535C27.988 31.4942 28.023 31.1983 28.023 30.9344C28.023 30.585 27.967 28.3096 28.0298 28.1861C28.0391 28.1677 28.0851 28.1208 28.0975 28.1095C28.1469 28.0641 28.2345 28.028 28.3058 28.0207C28.6535 27.9851 29.0559 28.0171 29.4087 28.0176L31.6278 28.0108Z" fill="white"/>
<path d="M48.02 43C48.2886 43.0107 48.4996 43.0527 48.7019 43.2801C48.8999 43.5026 48.9921 43.7906 48.9966 44.1043L48.9977 47.4394L48.9968 48.4527C48.9964 48.6513 49.0111 48.8687 48.9806 49.0642C48.9433 49.3041 48.8253 49.5306 48.6745 49.7015C48.5399 49.8541 48.3616 49.9426 48.1768 49.9812C48.0315 50.0115 47.8659 49.996 47.7179 49.9961L46.8799 49.9951H43.9762C43.7246 49.966 43.5184 49.9011 43.326 49.7028C43.1163 49.4868 43.0106 49.199 43.0047 48.8794L43.0019 45.515L43.0032 44.5146C43.0035 44.3237 42.989 44.1178 43.0194 43.9296C43.0548 43.7101 43.1471 43.5073 43.2867 43.3504C43.4133 43.2079 43.5694 43.0747 43.7464 43.0299C43.9025 42.9903 44.0783 43.0055 44.238 43.007L45.0389 43.0114L48.02 43Z" fill="url(#paint10_linear_0_212)"/>
<path d="M22.5013 27.0257L24.3385 27.0137C24.5982 27.0122 24.9152 26.9774 25.1667 27.025C25.3529 27.0603 25.5359 27.1485 25.6714 27.2664C25.8987 27.464 25.9911 27.7009 25.9927 27.9764L25.9958 31.0217L25.9949 31.8321C25.9948 31.9573 26.0116 32.1026 25.9848 32.2253C25.9426 32.4183 25.836 32.5851 25.6787 32.7224C25.5261 32.8557 25.3491 32.9318 25.139 32.9679C24.8714 33.0139 24.5554 32.9865 24.2819 32.9863L22.5615 32.9846L20.8511 32.9898C20.5026 32.9904 20.0751 33.0324 19.7421 32.9417C19.455 32.8635 19.2079 32.6666 19.0863 32.4242C18.9507 32.1537 19.0151 31.728 19.0163 31.4307L19.0247 29.812C19.0253 29.1701 18.9772 28.5036 19.0303 27.8657C19.0394 27.7556 19.0696 27.6549 19.1219 27.5543C19.2295 27.3477 19.4724 27.1689 19.7136 27.0981L19.7595 27.0854C20.0627 26.997 20.4572 27.0412 20.7772 27.0392L22.5013 27.0257Z" fill="url(#paint11_linear_0_212)"/>
<path d="M36.1064 27.0157L39.6594 27.0066L40.704 27.0048C40.8904 27.0044 41.088 26.9913 41.2726 27.0101C41.4059 27.0236 41.5464 27.0904 41.6498 27.163C41.8391 27.296 41.9612 27.5007 41.9835 27.7122C42.0115 27.9781 41.9896 28.2622 41.9903 28.5307L41.9926 30.103L41.9932 31.5158C41.9933 31.7583 42.0143 32.0209 41.982 32.2611C41.9607 32.4198 41.8495 32.5979 41.7284 32.715C41.5101 32.9263 41.2422 32.9867 40.9299 33L35.9662 32.9882C35.6896 32.9642 35.4425 32.8348 35.2731 32.644C35.1541 32.51 35.0669 32.3483 35.035 32.1809C34.9729 31.855 35.0121 31.4732 35.0134 31.1406L35.0214 29.161L35.0154 28.4428C35.0108 28.2681 34.9909 28.0848 35.0236 27.9119L35.0315 27.8738C35.0606 27.7203 35.1224 27.5936 35.2263 27.4658C35.4389 27.2039 35.7535 27.0735 36.1064 27.0157Z" fill="url(#paint12_linear_0_212)"/>
<path d="M10.8281 35.0263C11.7741 34.9724 12.755 35.0179 13.7045 35.0185L15.2758 35.0176C15.5883 35.0177 15.9838 34.9791 16.2805 35.0679C16.5595 35.1513 16.8002 35.3482 16.9183 35.5802C16.9602 35.6626 16.9865 35.7486 16.991 35.8384L16.9935 38.6447L16.9936 39.7098C16.9936 39.9002 17.0265 40.1382 16.9429 40.3162L16.9235 40.3542L16.8517 40.4862C16.683 40.7484 16.4198 40.8808 16.0986 40.967C15.8359 40.9972 15.5587 40.9819 15.2937 40.9806L13.9302 40.9755C12.9998 40.9749 12.0476 41.0246 11.1199 40.984C10.9529 40.9767 10.7856 40.9635 10.6321 40.9023C10.3733 40.7992 10.1655 40.6168 10.0778 40.3808C10.0143 40.2098 10.026 40.0423 10.0266 39.8653L10.0292 39.107L10.0258 37.0538C10.0245 36.6626 9.97786 36.2446 10.0132 35.8573C10.0256 35.7218 10.0653 35.5888 10.1406 35.4687C10.293 35.2256 10.5352 35.1071 10.8281 35.0263Z" fill="url(#paint13_linear_0_212)"/>
<path d="M27.8629 35.0165C28.572 34.9798 29.3046 35.0157 30.0169 35.0155L32.0645 35.0148C32.4288 35.0149 32.9239 34.9658 33.2708 35.0598C33.523 35.1281 33.7358 35.2953 33.8556 35.4972C33.9167 35.6003 33.9604 35.718 33.9692 35.834C34.0074 36.3371 33.9696 36.8627 33.9715 37.3685L33.9786 39.3406C33.9795 39.6257 34.0454 40.0614 33.9413 40.3301L33.9259 40.3667L33.877 40.4756C33.7304 40.735 33.4636 40.888 33.1529 40.973C32.9182 41.0103 32.6555 40.9857 32.4164 40.9842L31.2366 40.9862L29.0112 40.9909C28.6591 40.9914 28.2914 41.0122 27.9419 40.9891C27.8053 40.9801 27.662 40.9373 27.5423 40.881C27.2929 40.7635 27.1055 40.5695 27.0345 40.3315C26.979 40.1457 27.0072 39.912 27.0067 39.7209L27.0081 38.395L27.0097 36.736C27.0103 36.4475 26.9917 36.1466 27.019 35.8594C27.0335 35.7075 27.074 35.559 27.1668 35.4276C27.3282 35.1987 27.5669 35.0758 27.8629 35.0165Z" fill="url(#paint14_linear_0_212)"/>
<path d="M35.853 35.0201C36.4449 34.9759 37.074 35.0183 37.6709 35.0187L39.8611 35.0191L40.6709 35.0202C40.8835 35.0207 41.1212 35.0141 41.3215 35.083C41.5886 35.1747 41.7995 35.3609 41.9104 35.5894C41.9543 35.6796 41.9843 35.7809 41.9926 35.8786C42.0114 36.1003 41.9889 36.3336 41.9855 36.5564L41.9802 37.7332L41.982 39.3453C41.9823 39.6305 42.0003 39.9257 41.9777 40.2097C41.9714 40.2881 41.9413 40.3678 41.9039 40.439C41.7504 40.7307 41.4768 40.8801 41.1399 40.9818C40.9038 41.0144 40.6486 40.9939 40.4088 40.9908L39.2314 40.9811L36.911 40.9809L36.3474 40.9855C36.1692 40.9915 35.9897 41.0138 35.8173 40.9622C35.4953 40.8659 35.2493 40.6789 35.1127 40.4064C35.0616 40.3044 35.0313 40.1968 35.0213 40.086C34.9703 39.5214 35.0264 38.9246 35.0291 38.3559L35.043 35.8193C35.0476 35.7274 35.0777 35.6349 35.1214 35.5513C35.2641 35.278 35.5422 35.1214 35.853 35.0201Z" fill="url(#paint15_linear_0_212)"/>
<path d="M27.018 48.2564L27.0115 47.2134L27.0082 45.4457L27.0066 44.3329C27.0063 44.1365 26.9858 43.9196 27.0186 43.7259C27.0432 43.5809 27.1441 43.4294 27.2568 43.3216C27.4543 43.1329 27.6874 43.0178 27.9884 43.0051L31.0576 43.0017L32.344 43.0032C32.5842 43.0036 32.8427 42.9906 33.081 43.0143C33.2843 43.0345 33.4976 43.12 33.6456 43.2383C33.8034 43.3643 33.9286 43.5336 33.9676 43.7165C34.0004 43.87 33.9865 44.0379 33.9867 44.1938L33.9875 45.0141L34 48.0767C33.9508 48.3834 33.8574 48.6126 33.5513 48.8096C33.4156 48.8969 33.2269 48.9687 33.0568 48.9855C32.7708 49.0136 32.4558 48.9922 32.1671 48.992L30.3177 48.9902L28.7819 48.9912C28.4954 48.9919 28.1698 49.0166 27.8895 48.9704C27.5999 48.9226 27.3151 48.7669 27.1576 48.552C27.0922 48.4627 27.0493 48.3577 27.018 48.2564Z" fill="url(#paint16_linear_0_212)"/>
<path d="M11.1433 43.0193L14.6309 43.0243C15.1054 43.0248 15.6557 42.9621 16.12 43.0362C16.2641 43.0593 16.4159 43.1374 16.5329 43.2214C16.7458 43.3744 16.9435 43.6437 16.9814 43.903C17.0177 44.1518 16.9897 44.4395 16.9896 44.6922L16.9887 46.3134L16.9872 48.156C16.9876 48.4697 17.0128 48.8096 16.9821 49.1203C16.9656 49.2861 16.8831 49.4571 16.7793 49.5863C16.5491 49.8726 16.2402 49.9553 15.8905 49.9917L12.4462 49.9969L11.4942 49.997C11.3043 49.9969 11.1017 50.0113 10.9143 49.9779C10.7339 49.9457 10.556 49.8537 10.4197 49.7328C10.1715 49.5129 10.0281 49.2572 10.0082 48.9227C9.98888 48.5978 10.0095 48.2644 10.0115 47.9387L10.0135 46.1324L10.0079 44.7755C10.0054 44.4879 9.98251 44.1824 10.0321 43.8982C10.0664 43.7014 10.1707 43.5071 10.309 43.3613C10.5613 43.0953 10.7919 43.0415 11.1433 43.0193Z" fill="url(#paint17_linear_0_212)"/>
<path d="M11.1986 44.0229C11.3435 43.9877 11.5273 44.0036 11.6799 44.0033L12.6202 44.0022L15.6419 44.0056C15.796 44.0094 15.8472 44.0178 15.9546 44.1099C16.0395 44.4121 15.9792 44.8123 15.9795 45.1296L15.9781 47.0541L15.9767 47.5702C15.9763 47.6845 15.9904 47.8167 15.9252 47.9219C15.8911 47.9769 15.8661 47.9698 15.7982 47.9902L12.247 47.9867C12.033 47.9868 11.3103 48.0267 11.1739 47.9678C11.1373 47.952 11.1093 47.9258 11.0769 47.9048C11.0159 47.7894 11.0317 47.6677 11.0318 47.5446L11.0325 46.9648L11.0286 45.0072C11.0278 44.7611 10.9719 44.4549 11.0186 44.2175C11.0387 44.1149 11.0999 44.0773 11.1986 44.0229Z" fill="white"/>
<path d="M35.8724 43.0344C36.6445 42.9659 37.4617 43.0209 38.2387 43.0203L40.0977 43.0193C40.4461 43.0193 40.9046 42.9635 41.2317 43.0793C41.5272 43.1838 41.7739 43.4172 41.9027 43.7003C41.9519 43.808 41.9805 43.9214 41.9891 44.0392C42.0104 44.3311 41.9939 44.6337 41.9941 44.9268L41.9949 46.6187L41.9941 48.126C41.9938 48.4095 42.0098 48.7016 41.984 48.9836C41.9728 49.1078 41.9441 49.2234 41.8951 49.3382C41.7499 49.6783 41.4729 49.8404 41.1451 49.9731C40.8903 50.0115 40.6192 49.9935 40.3615 49.9941L39.0447 49.9951L37.0901 49.9949C36.7471 49.9944 36.394 50.0099 36.052 49.9893C35.9457 49.9829 35.8331 49.9575 35.7343 49.9181C35.4534 49.8059 35.1975 49.5454 35.09 49.2651C34.9606 48.9277 35.0214 48.4499 35.0209 48.0879L35.0193 46.3875C35.0192 45.614 34.9724 44.8069 35.0249 44.0367C35.034 43.902 35.0771 43.7682 35.1359 43.6472C35.296 43.3179 35.5347 43.1482 35.8724 43.0344Z" fill="url(#paint18_linear_0_212)"/>
<path d="M19.9173 35.0093C20.2375 34.9912 20.5687 35.0051 20.8902 35.0052L22.7001 35.0065L24.2273 35.0088C24.4906 35.0094 24.7691 34.9939 25.0302 35.0139C25.1879 35.026 25.3389 35.0616 25.4763 35.1318C25.7195 35.256 25.9058 35.4628 25.9686 35.7055C26.0212 35.9082 25.9862 36.1863 25.9859 36.3962L25.9857 37.8316L25.9882 39.439C25.9886 39.6972 26.0185 39.9842 25.9815 40.239C25.9651 40.3521 25.8915 40.4772 25.8222 40.5721C25.6383 40.824 25.3738 40.9385 25.0507 41L21.7138 40.9899L20.5524 40.9885C20.2637 40.9881 19.9408 41.0153 19.6746 40.9012C19.3745 40.7727 19.1718 40.5715 19.0664 40.2959C18.962 40.0232 19.0236 39.5838 19.0233 39.2919L19.0219 37.568C19.0217 37.004 18.9734 36.4073 19.0209 35.8464C19.0313 35.7237 19.0662 35.6186 19.133 35.5102C19.3002 35.2385 19.591 35.0918 19.9173 35.0093Z" fill="url(#paint19_linear_0_212)"/>
<path d="M24.5372 43.0056C24.9602 42.9927 25.3325 42.9764 25.674 43.2764C25.8374 43.42 25.9787 43.6672 25.9905 43.886C26.0108 44.2671 25.9922 44.6605 25.9922 45.0431L25.9906 47.2995L25.9899 48.4689C25.9913 48.6704 26.0147 48.9016 25.9847 49.1001C25.9568 49.2856 25.8205 49.5287 25.6933 49.6619C25.5331 49.8296 25.3247 49.9227 25.0983 49.9606C24.6386 50.0378 24.0779 49.9778 23.6092 49.978L20.4348 49.9834C20.0417 49.9887 19.6954 49.9828 19.3813 49.7075C19.1592 49.5128 19.0134 49.214 19 48.9175L19.0026 45.8215L19.0072 44.6554C19.0085 44.409 18.9924 44.1459 19.0342 43.9027C19.0692 43.6985 19.1795 43.5019 19.3246 43.3556C19.4666 43.2125 19.6499 43.0749 19.8505 43.031C20.0336 42.991 20.2445 43.0081 20.4313 43.0085L21.4432 43.0121L24.5372 43.0056Z" fill="url(#paint20_linear_0_212)"/>
</g>
<path d="M80.248 21.96C80.1573 21.96 80.112 21.9147 80.112 21.824V19.08C80.112 19.0373 80.1227 19.0053 80.144 18.984C80.1707 18.9573 80.2053 18.944 80.248 18.944H80.752C80.9653 18.7147 81.1307 18.4213 81.248 18.064C81.3707 17.7067 81.464 17.256 81.528 16.712C81.656 15.6507 81.7547 14.0453 81.824 11.896C81.824 11.8533 81.8347 11.8213 81.856 11.8C81.8827 11.7733 81.9173 11.76 81.96 11.76H87.376C87.4667 11.76 87.512 11.8053 87.512 11.896L87.528 15.648L87.616 18.944L88.512 18.936C88.5547 18.936 88.5867 18.9493 88.608 18.976C88.6347 18.9973 88.648 19.0293 88.648 19.072V21.824C88.648 21.9147 88.6027 21.96 88.512 21.96H87.496C87.4 21.96 87.352 21.9147 87.352 21.824L87.32 20H81.456L81.424 21.824C81.424 21.9147 81.376 21.96 81.28 21.96H80.248ZM86.16 18.944L86.144 15.648L86.088 12.832H83.056C82.9813 14.528 82.8933 15.832 82.792 16.744C82.728 17.2667 82.6453 17.696 82.544 18.032C82.448 18.3627 82.3227 18.6667 82.168 18.944H86.16ZM89.9033 20.12C89.6899 20.12 89.4979 20.0933 89.3273 20.04C89.2526 20.024 89.2153 19.9733 89.2153 19.888V19.152C89.2153 19.056 89.2659 19.016 89.3673 19.032C89.4526 19.048 89.5433 19.056 89.6393 19.056C89.8579 19.056 90.0313 19.008 90.1593 18.912C90.2873 18.8107 90.3859 18.64 90.4553 18.4C90.5299 18.16 90.5886 17.8187 90.6313 17.376C90.6793 16.832 90.7273 16.0267 90.7753 14.96C90.8233 13.8933 90.8633 12.872 90.8953 11.896C90.9059 11.8 90.9539 11.752 91.0393 11.752H96.5353C96.6259 11.752 96.6713 11.8 96.6713 11.896L96.6553 15.816L96.7113 19.856C96.7113 19.9467 96.6686 19.992 96.5833 19.992L95.3593 20.008C95.3166 20.008 95.2819 19.9973 95.2553 19.976C95.2339 19.9493 95.2233 19.9147 95.2233 19.872L95.2393 15.816L95.1993 12.816H92.1353C92.0339 15.0773 91.9486 16.632 91.8793 17.48C91.8313 18.088 91.7433 18.5813 91.6153 18.96C91.4873 19.3387 91.2873 19.6267 91.0153 19.824C90.7433 20.0213 90.3726 20.12 89.9033 20.12ZM98.1198 20C98.0291 20 97.9838 19.9547 97.9838 19.864L98.0238 15.704L97.9838 11.896C97.9838 11.8053 98.0264 11.76 98.1118 11.76H99.3198C99.4104 11.76 99.4557 11.8053 99.4557 11.896L99.4318 15.672L99.3997 18.408L103.248 11.856C103.285 11.792 103.341 11.76 103.416 11.76H104.888C104.978 11.76 105.024 11.8053 105.024 11.896L104.984 15.744L105.024 19.864C105.024 19.9547 104.978 20 104.888 20H103.688C103.597 20 103.552 19.9547 103.552 19.864L103.576 15.84L103.6 13.4L99.7758 19.904C99.7438 19.968 99.6904 20 99.6158 20H98.1198ZM112.849 11.76C112.891 11.76 112.923 11.7733 112.945 11.8C112.971 11.8213 112.985 11.8533 112.985 11.896V12.696C112.985 12.7333 112.971 12.7653 112.945 12.792C112.923 12.8187 112.891 12.832 112.849 12.832H110.145L110.121 15.744L110.161 19.864C110.161 19.9547 110.115 20 110.025 20H108.793C108.702 20 108.657 19.9547 108.657 19.864L108.697 15.744L108.673 12.832H105.977C105.934 12.832 105.899 12.8213 105.873 12.8C105.851 12.7733 105.841 12.7387 105.841 12.696V11.896C105.841 11.8053 105.886 11.76 105.977 11.76H112.849ZM116.874 20.184C116.037 20.184 115.322 20.0053 114.73 19.648C114.138 19.2853 113.69 18.784 113.386 18.144C113.082 17.4987 112.93 16.752 112.93 15.904C112.93 15.0507 113.085 14.2987 113.394 13.648C113.703 12.992 114.149 12.4827 114.73 12.12C115.317 11.7573 116.005 11.576 116.794 11.576C117.583 11.576 118.261 11.7493 118.826 12.096C119.397 12.4373 119.834 12.9333 120.138 13.584C120.447 14.2347 120.61 15.0133 120.626 15.92C120.626 16.0107 120.581 16.056 120.49 16.056H114.41C114.458 18.1307 115.285 19.168 116.89 19.168C117.493 19.168 117.975 19.0053 118.338 18.68C118.706 18.3547 118.951 17.88 119.074 17.256C119.09 17.176 119.138 17.136 119.218 17.136H120.362C120.41 17.136 120.445 17.1467 120.466 17.168C120.487 17.1893 120.495 17.2187 120.49 17.256C120.405 17.832 120.21 18.3413 119.906 18.784C119.602 19.2213 119.191 19.5653 118.674 19.816C118.162 20.0613 117.562 20.184 116.874 20.184ZM119.05 15.072C119.034 14.608 118.938 14.1893 118.762 13.816C118.586 13.4373 118.333 13.1387 118.002 12.92C117.671 12.696 117.271 12.584 116.802 12.584C116.125 12.584 115.589 12.8 115.194 13.232C114.799 13.664 114.554 14.2773 114.458 15.072H119.05ZM121.216 20.12C121.002 20.12 120.81 20.0933 120.64 20.04C120.565 20.024 120.528 19.9733 120.528 19.888V19.152C120.528 19.056 120.578 19.016 120.68 19.032C120.765 19.048 120.856 19.056 120.952 19.056C121.17 19.056 121.344 19.008 121.472 18.912C121.6 18.8107 121.698 18.64 121.768 18.4C121.842 18.16 121.901 17.8187 121.944 17.376C121.992 16.832 122.04 16.0267 122.088 14.96C122.136 13.8933 122.176 12.872 122.208 11.896C122.218 11.8 122.266 11.752 122.352 11.752H127.848C127.938 11.752 127.984 11.8 127.984 11.896L127.968 15.816L128.024 19.856C128.024 19.9467 127.981 19.992 127.896 19.992L126.672 20.008C126.629 20.008 126.594 19.9973 126.568 19.976C126.546 19.9493 126.536 19.9147 126.536 19.872L126.552 15.816L126.512 12.816H123.448C123.346 15.0773 123.261 16.632 123.192 17.48C123.144 18.088 123.056 18.5813 122.928 18.96C122.8 19.3387 122.6 19.6267 122.328 19.824C122.056 20.0213 121.685 20.12 121.216 20.12ZM130.768 14.864H132.192C134.523 14.864 135.688 15.712 135.688 17.408C135.688 19.136 134.523 20 132.192 20H129.424C129.339 20 129.296 19.9547 129.296 19.864L129.328 15.984L129.296 11.896C129.296 11.8 129.342 11.752 129.432 11.752H130.664C130.755 11.752 130.8 11.8 130.8 11.896L130.768 14.864ZM130.76 15.864L130.784 18.992H132.192C132.843 18.992 133.339 18.8693 133.68 18.624C134.027 18.3787 134.2 17.9867 134.2 17.448C134.2 16.92 134.035 16.5253 133.704 16.264C133.374 15.9973 132.87 15.864 132.192 15.864H130.76ZM142.033 11.896C142.033 11.8053 142.075 11.76 142.161 11.76H143.377C143.467 11.76 143.513 11.8053 143.513 11.896L143.473 15.744L143.513 19.864C143.513 19.9547 143.467 20 143.377 20H142.161C142.075 20 142.033 19.9547 142.033 19.864L142.065 16.168H138.057L138.089 19.864C138.089 19.9547 138.043 20 137.953 20H136.737C136.651 20 136.609 19.9547 136.609 19.864L136.641 15.744L136.609 11.896C136.609 11.8053 136.651 11.76 136.737 11.76H137.953C138.043 11.76 138.089 11.8053 138.089 11.896L138.057 15.104H142.057L142.033 11.896ZM148.428 20.184C147.607 20.184 146.903 20.008 146.316 19.656C145.73 19.304 145.282 18.8053 144.972 18.16C144.668 17.5147 144.516 16.76 144.516 15.896C144.516 15.032 144.668 14.2747 144.972 13.624C145.282 12.9733 145.73 12.4693 146.316 12.112C146.903 11.7547 147.607 11.576 148.428 11.576C149.25 11.576 149.954 11.752 150.54 12.104C151.127 12.456 151.572 12.9573 151.876 13.608C152.18 14.2533 152.332 15.008 152.332 15.872C152.332 16.7413 152.18 17.5013 151.876 18.152C151.572 18.7973 151.127 19.2987 150.54 19.656C149.954 20.008 149.25 20.184 148.428 20.184ZM148.428 19.168C149.228 19.168 149.828 18.888 150.228 18.328C150.628 17.768 150.828 16.9573 150.828 15.896C150.828 14.84 150.626 14.0267 150.22 13.456C149.815 12.88 149.215 12.592 148.42 12.592C147.626 12.5973 147.026 12.8853 146.62 13.456C146.215 14.0267 146.012 14.8427 146.012 15.904C146.012 16.96 146.215 17.768 146.62 18.328C147.031 18.888 147.634 19.168 148.428 19.168ZM156.966 20.184C156.155 20.184 155.459 20.0107 154.878 19.664C154.297 19.312 153.854 18.8133 153.55 18.168C153.251 17.5227 153.102 16.768 153.102 15.904C153.102 15.0347 153.254 14.2747 153.558 13.624C153.862 12.9733 154.305 12.4693 154.886 12.112C155.473 11.7547 156.177 11.576 156.998 11.576C157.665 11.576 158.246 11.696 158.742 11.936C159.243 12.176 159.641 12.5147 159.934 12.952C160.227 13.384 160.403 13.888 160.462 14.464V14.496C160.462 14.5707 160.419 14.608 160.334 14.608H159.254C159.169 14.608 159.118 14.5653 159.102 14.48C159.001 13.872 158.763 13.408 158.39 13.088C158.022 12.7627 157.558 12.6 156.998 12.6C156.198 12.6053 155.598 12.8933 155.198 13.464C154.803 14.0293 154.606 14.84 154.606 15.896C154.606 16.968 154.803 17.7813 155.198 18.336C155.598 18.8907 156.201 19.168 157.006 19.168C157.625 19.168 158.126 18.9813 158.51 18.608C158.899 18.2347 159.126 17.712 159.19 17.04C159.206 16.9547 159.254 16.912 159.334 16.912H160.438C160.481 16.912 160.515 16.9227 160.542 16.944C160.569 16.9653 160.579 16.9947 160.574 17.032C160.515 17.6453 160.334 18.192 160.03 18.672C159.731 19.1467 159.318 19.5173 158.79 19.784C158.267 20.0507 157.659 20.184 156.966 20.184ZM167.614 11.76C167.657 11.76 167.689 11.7733 167.71 11.8C167.737 11.8213 167.75 11.8533 167.75 11.896V12.696C167.75 12.7333 167.737 12.7653 167.71 12.792C167.689 12.8187 167.657 12.832 167.614 12.832H164.91L164.886 15.744L164.926 19.864C164.926 19.9547 164.881 20 164.79 20H163.558C163.468 20 163.422 19.9547 163.422 19.864L163.462 15.744L163.438 12.832H160.742C160.7 12.832 160.665 12.8213 160.638 12.8C160.617 12.7733 160.606 12.7387 160.606 12.696V11.896C160.606 11.8053 160.652 11.76 160.742 11.76H167.614ZM170.065 14.864H171.489C173.82 14.864 174.985 15.712 174.985 17.408C174.985 19.136 173.82 20 171.489 20H168.721C168.636 20 168.593 19.9547 168.593 19.864L168.625 15.984L168.593 11.896C168.593 11.8 168.638 11.752 168.729 11.752H169.961C170.052 11.752 170.097 11.8 170.097 11.896L170.065 14.864ZM170.057 15.864L170.081 18.992H171.489C172.14 18.992 172.636 18.8693 172.977 18.624C173.324 18.3787 173.497 17.9867 173.497 17.448C173.497 16.92 173.332 16.5253 173.001 16.264C172.67 15.9973 172.166 15.864 171.489 15.864H170.057ZM184.809 11.76C184.846 11.76 184.876 11.768 184.897 11.784C184.918 11.7947 184.929 11.8133 184.929 11.84C184.929 11.872 184.918 11.9013 184.897 11.928L182.425 15.336L185.281 19.832C185.297 19.864 185.305 19.8907 185.305 19.912C185.305 19.9707 185.265 20 185.185 20H183.785C183.71 20 183.657 19.968 183.625 19.904L182.937 18.72L181.257 16.104H180.057L180.089 19.864C180.089 19.9547 180.044 20 179.953 20H178.721C178.636 20 178.593 19.9547 178.593 19.864L178.625 15.744L178.593 11.896C178.593 11.8053 178.636 11.76 178.721 11.76H179.953C180.044 11.76 180.089 11.8053 180.089 11.896L180.057 15.04H181.273L183.465 11.848C183.508 11.7893 183.564 11.76 183.633 11.76H184.809ZM188.537 20.024L185.297 11.92L185.281 11.856C185.281 11.8293 185.292 11.808 185.313 11.792C185.335 11.7707 185.364 11.76 185.401 11.76H186.761C186.836 11.76 186.889 11.7973 186.921 11.872L189.249 18.12L191.241 11.872C191.268 11.7973 191.319 11.76 191.393 11.76H192.617C192.671 11.76 192.705 11.776 192.721 11.808C192.743 11.8347 192.745 11.872 192.729 11.92L189.009 22.608C188.983 22.6827 188.932 22.72 188.857 22.72H187.753C187.7 22.72 187.663 22.704 187.641 22.672C187.62 22.6453 187.617 22.608 187.633 22.56L188.537 20.024ZM197.43 11.592C198.15 11.592 198.766 11.7787 199.278 12.152C199.79 12.52 200.177 13.0267 200.438 13.672C200.705 14.3173 200.838 15.0453 200.838 15.856C200.838 16.656 200.7 17.384 200.422 18.04C200.15 18.6907 199.756 19.208 199.238 19.592C198.721 19.9707 198.11 20.16 197.406 20.16C196.83 20.16 196.324 20.0373 195.886 19.792C195.454 19.5413 195.105 19.176 194.838 18.696L194.862 22.584C194.862 22.6747 194.817 22.72 194.726 22.72H193.494C193.452 22.72 193.417 22.7067 193.39 22.68C193.369 22.6587 193.358 22.6267 193.358 22.584L193.406 16.384L193.366 11.896C193.366 11.8053 193.409 11.76 193.494 11.76H194.702C194.793 11.76 194.838 11.8053 194.838 11.896L194.798 13.16C195.076 12.664 195.438 12.28 195.886 12.008C196.334 11.7307 196.849 11.592 197.43 11.592ZM197.03 19.136C197.798 19.136 198.377 18.8507 198.766 18.28C199.161 17.704 199.358 16.9307 199.358 15.96C199.358 14.936 199.164 14.1253 198.774 13.528C198.39 12.9253 197.82 12.624 197.062 12.624C196.342 12.624 195.777 12.9013 195.366 13.456C194.961 14.0053 194.758 14.8053 194.758 15.856C194.758 16.9013 194.956 17.7093 195.35 18.28C195.75 18.8507 196.31 19.136 197.03 19.136ZM205.482 20.184C204.671 20.184 203.975 20.0107 203.394 19.664C202.812 19.312 202.37 18.8133 202.066 18.168C201.767 17.5227 201.618 16.768 201.618 15.904C201.618 15.0347 201.77 14.2747 202.074 13.624C202.378 12.9733 202.82 12.4693 203.402 12.112C203.988 11.7547 204.692 11.576 205.514 11.576C206.18 11.576 206.762 11.696 207.258 11.936C207.759 12.176 208.156 12.5147 208.45 12.952C208.743 13.384 208.919 13.888 208.978 14.464V14.496C208.978 14.5707 208.935 14.608 208.85 14.608H207.77C207.684 14.608 207.634 14.5653 207.618 14.48C207.516 13.872 207.279 13.408 206.906 13.088C206.538 12.7627 206.074 12.6 205.514 12.6C204.714 12.6053 204.114 12.8933 203.714 13.464C203.319 14.0293 203.122 14.84 203.122 15.896C203.122 16.968 203.319 17.7813 203.714 18.336C204.114 18.8907 204.716 19.168 205.522 19.168C206.14 19.168 206.642 18.9813 207.026 18.608C207.415 18.2347 207.642 17.712 207.706 17.04C207.722 16.9547 207.77 16.912 207.85 16.912H208.954C208.996 16.912 209.031 16.9227 209.058 16.944C209.084 16.9653 209.095 16.9947 209.09 17.032C209.031 17.6453 208.85 18.192 208.546 18.672C208.247 19.1467 207.834 19.5173 207.306 19.784C206.783 20.0507 206.175 20.184 205.482 20.184ZM215.766 11.896C215.766 11.8053 215.812 11.76 215.902 11.76H217.102C217.193 11.76 217.238 11.8053 217.238 11.896L217.19 15.792L217.238 19.864C217.238 19.9547 217.193 20 217.102 20H215.902C215.817 20 215.774 19.9547 215.774 19.864L215.798 18.592C215.526 19.088 215.169 19.472 214.726 19.744C214.284 20.016 213.766 20.152 213.174 20.152C212.449 20.152 211.83 19.968 211.318 19.6C210.806 19.2267 210.417 18.72 210.15 18.08C209.889 17.4347 209.758 16.7067 209.758 15.896C209.758 15.096 209.894 14.3707 210.166 13.72C210.444 13.064 210.841 12.5467 211.358 12.168C211.881 11.7893 212.494 11.6 213.198 11.6C213.785 11.6 214.297 11.728 214.734 11.984C215.177 12.24 215.532 12.6133 215.798 13.104L215.766 11.896ZM213.526 19.136C214.257 19.136 214.825 18.864 215.23 18.32C215.636 17.7707 215.838 16.96 215.838 15.888C215.838 14.8427 215.638 14.0373 215.238 13.472C214.838 12.9013 214.273 12.616 213.542 12.616C212.785 12.616 212.212 12.904 211.822 13.48C211.438 14.0507 211.246 14.8213 211.246 15.792C211.246 16.816 211.438 17.6293 211.822 18.232C212.212 18.8347 212.78 19.136 213.526 19.136Z" fill="#385462"/>
<path d="M85.14 50.26C83.76 50.26 82.6833 49.91 81.91 49.21C81.1433 48.5033 80.6967 47.5333 80.57 46.3V46.26C80.57 46.1667 80.6233 46.12 80.73 46.12H82.26C82.36 46.12 82.4167 46.1767 82.43 46.29C82.4833 47.09 82.7433 47.7267 83.21 48.2C83.6767 48.6733 84.3167 48.91 85.13 48.91C85.73 48.91 86.25 48.7567 86.69 48.45C87.13 48.1433 87.47 47.7 87.71 47.12C87.95 46.5333 88.07 45.8367 88.07 45.03C88.07 43.8367 87.8267 42.9267 87.34 42.3C86.86 41.6733 86.1633 41.36 85.25 41.36C84.5433 41.36 83.9633 41.54 83.51 41.9C83.0567 42.26 82.7433 42.7767 82.57 43.45C82.55 43.55 82.49 43.6 82.39 43.6H81.06C80.94 43.6 80.8833 43.54 80.89 43.42L81.37 36.16C81.3767 36.0533 81.4333 36 81.54 36H88.96C89.0133 36 89.0533 36.0167 89.08 36.05C89.1133 36.0767 89.13 36.1167 89.13 36.17V37.27C89.13 37.3167 89.1133 37.3567 89.08 37.39C89.0533 37.4233 89.0133 37.44 88.96 37.44H82.99L82.69 41.32C83.07 40.8733 83.5067 40.54 84 40.32C84.5 40.1 85.08 39.99 85.74 39.99C86.5667 39.99 87.3067 40.19 87.96 40.59C88.6133 40.99 89.1233 41.5633 89.49 42.31C89.8633 43.05 90.05 43.92 90.05 44.92C90.05 45.9933 89.8433 46.9333 89.43 47.74C89.0233 48.5467 88.4467 49.17 87.7 49.61C86.96 50.0433 86.1067 50.26 85.14 50.26ZM98.113 50.03L94.063 39.9L94.043 39.82C94.043 39.7867 94.0563 39.76 94.083 39.74C94.1096 39.7133 94.1463 39.7 94.193 39.7H95.893C95.9863 39.7 96.053 39.7467 96.093 39.84L99.003 47.65L101.493 39.84C101.526 39.7467 101.59 39.7 101.683 39.7H103.213C103.28 39.7 103.323 39.72 103.343 39.76C103.37 39.7933 103.373 39.84 103.353 39.9L98.703 53.26C98.6696 53.3533 98.6063 53.4 98.513 53.4H97.133C97.0663 53.4 97.0196 53.38 96.993 53.34C96.9663 53.3067 96.963 53.26 96.983 53.2L98.113 50.03ZM109.229 39.49C110.129 39.49 110.899 39.7233 111.539 40.19C112.179 40.65 112.663 41.2833 112.989 42.09C113.323 42.8967 113.489 43.8067 113.489 44.82C113.489 45.82 113.316 46.73 112.969 47.55C112.629 48.3633 112.136 49.01 111.489 49.49C110.843 49.9633 110.079 50.2 109.199 50.2C108.479 50.2 107.846 50.0467 107.299 49.74C106.759 49.4267 106.323 48.97 105.989 48.37L106.019 53.23C106.019 53.3433 105.963 53.4 105.849 53.4H104.309C104.256 53.4 104.213 53.3833 104.179 53.35C104.153 53.3233 104.139 53.2833 104.139 53.23L104.199 45.48L104.149 39.87C104.149 39.7567 104.203 39.7 104.309 39.7H105.819C105.933 39.7 105.989 39.7567 105.989 39.87L105.939 41.45C106.286 40.83 106.739 40.35 107.299 40.01C107.859 39.6633 108.503 39.49 109.229 39.49ZM108.729 48.92C109.689 48.92 110.413 48.5633 110.899 47.85C111.393 47.13 111.639 46.1633 111.639 44.95C111.639 43.67 111.396 42.6567 110.909 41.91C110.429 41.1567 109.716 40.78 108.769 40.78C107.869 40.78 107.163 41.1267 106.649 41.82C106.143 42.5067 105.889 43.5067 105.889 44.82C105.889 46.1267 106.136 47.1367 106.629 47.85C107.129 48.5633 107.829 48.92 108.729 48.92ZM119.363 50.23C118.337 50.23 117.457 50.01 116.723 49.57C115.99 49.13 115.43 48.5067 115.043 47.7C114.663 46.8933 114.473 45.95 114.473 44.87C114.473 43.79 114.663 42.8433 115.043 42.03C115.43 41.2167 115.99 40.5867 116.723 40.14C117.457 39.6933 118.337 39.47 119.363 39.47C120.39 39.47 121.27 39.69 122.003 40.13C122.737 40.57 123.293 41.1967 123.673 42.01C124.053 42.8167 124.243 43.76 124.243 44.84C124.243 45.9267 124.053 46.8767 123.673 47.69C123.293 48.4967 122.737 49.1233 122.003 49.57C121.27 50.01 120.39 50.23 119.363 50.23ZM119.363 48.96C120.363 48.96 121.113 48.61 121.613 47.91C122.113 47.21 122.363 46.1967 122.363 44.87C122.363 43.55 122.11 42.5333 121.603 41.82C121.097 41.1 120.347 40.74 119.353 40.74C118.36 40.7467 117.61 41.1067 117.103 41.82C116.597 42.5333 116.343 43.5533 116.343 44.88C116.343 46.2 116.597 47.21 117.103 47.91C117.617 48.61 118.37 48.96 119.363 48.96ZM133.258 39.7C133.304 39.7 133.341 39.71 133.368 39.73C133.394 39.7433 133.408 39.7667 133.408 39.8C133.408 39.84 133.394 39.8767 133.368 39.91L130.278 44.17L133.848 49.79C133.868 49.83 133.878 49.8633 133.878 49.89C133.878 49.9633 133.828 50 133.728 50H131.978C131.884 50 131.818 49.96 131.778 49.88L130.918 48.4L128.818 45.13H127.318L127.358 49.83C127.358 49.9433 127.301 50 127.188 50H125.648C125.541 50 125.488 49.9433 125.488 49.83L125.528 44.68L125.488 39.87C125.488 39.7567 125.541 39.7 125.648 39.7H127.188C127.301 39.7 127.358 39.7567 127.358 39.87L127.318 43.8H128.838L131.578 39.81C131.631 39.7367 131.701 39.7 131.788 39.7H133.258ZM138.367 50.23C137.341 50.23 136.461 50.01 135.727 49.57C134.994 49.13 134.434 48.5067 134.047 47.7C133.667 46.8933 133.477 45.95 133.477 44.87C133.477 43.79 133.667 42.8433 134.047 42.03C134.434 41.2167 134.994 40.5867 135.727 40.14C136.461 39.6933 137.341 39.47 138.367 39.47C139.394 39.47 140.274 39.69 141.007 40.13C141.741 40.57 142.297 41.1967 142.677 42.01C143.057 42.8167 143.247 43.76 143.247 44.84C143.247 45.9267 143.057 46.8767 142.677 47.69C142.297 48.4967 141.741 49.1233 141.007 49.57C140.274 50.01 139.394 50.23 138.367 50.23ZM138.367 48.96C139.367 48.96 140.117 48.61 140.617 47.91C141.117 47.21 141.367 46.1967 141.367 44.87C141.367 43.55 141.114 42.5333 140.607 41.82C140.101 41.1 139.351 40.74 138.357 40.74C137.364 40.7467 136.614 41.1067 136.107 41.82C135.601 42.5333 135.347 43.5533 135.347 44.88C135.347 46.2 135.601 47.21 136.107 47.91C136.621 48.61 137.374 48.96 138.367 48.96ZM150.581 44.49C151.435 44.6767 152.055 44.9867 152.441 45.42C152.828 45.8467 153.021 46.4067 153.021 47.1C153.021 48.1667 152.605 48.9167 151.771 49.35C150.945 49.7833 149.955 50 148.801 50H144.651C144.545 50 144.491 49.9433 144.491 49.83L144.531 44.68L144.501 39.87C144.501 39.7567 144.555 39.7 144.661 39.7H148.781C150.048 39.7 151.018 39.9133 151.691 40.34C152.371 40.76 152.711 41.3933 152.711 42.24C152.711 42.84 152.525 43.3233 152.151 43.69C151.785 44.0567 151.261 44.3167 150.581 44.47V44.49ZM146.331 40.96L146.311 43.96H148.761C150.175 43.96 150.881 43.4567 150.881 42.45C150.881 41.9633 150.691 41.5933 150.311 41.34C149.931 41.0867 149.411 40.96 148.751 40.96H146.331ZM146.301 45.18L146.321 48.74H148.761C149.521 48.74 150.111 48.5933 150.531 48.3C150.958 48.0067 151.171 47.5567 151.171 46.95C151.171 46.3633 150.945 45.9233 150.491 45.63C150.038 45.33 149.465 45.18 148.771 45.18H146.301Z" fill="#002B41"/>
<defs>
<linearGradient id="paint0_linear_0_212" x1="7.54149" y1="13.0107" x2="55.9999" y2="13.0107" gradientUnits="userSpaceOnUse">
<stop stop-color="#FF372A"/>
<stop offset="1" stop-color="#FF1514"/>
</linearGradient>
<linearGradient id="paint1_linear_0_212" x1="12.2724" y1="9.50603" x2="16" y2="9.50603" gradientUnits="userSpaceOnUse">
<stop stop-color="#FF372A"/>
<stop offset="1" stop-color="#FF1514"/>
</linearGradient>
<linearGradient id="paint2_linear_0_212" x1="44.2724" y1="9.50603" x2="48" y2="9.50603" gradientUnits="userSpaceOnUse">
<stop stop-color="#FF372A"/>
<stop offset="1" stop-color="#FF1514"/>
</linearGradient>
<linearGradient id="paint3_linear_0_212" x1="23.2724" y1="9.50603" x2="27" y2="9.50603" gradientUnits="userSpaceOnUse">
<stop stop-color="#FF372A"/>
<stop offset="1" stop-color="#FF1514"/>
</linearGradient>
<linearGradient id="paint4_linear_0_212" x1="33.2724" y1="9.50603" x2="37" y2="9.50603" gradientUnits="userSpaceOnUse">
<stop stop-color="#FF372A"/>
<stop offset="1" stop-color="#FF1514"/>
</linearGradient>
<linearGradient id="paint5_linear_0_212" x1="7.54149" y1="38.0214" x2="55.9999" y2="38.0214" gradientUnits="userSpaceOnUse">
<stop stop-color="#FF372A"/>
<stop offset="1" stop-color="#FF1514"/>
</linearGradient>
<linearGradient id="paint6_linear_0_212" x1="43.4086" y1="30.004" x2="49" y2="30.004" gradientUnits="userSpaceOnUse">
<stop stop-color="#FF372A"/>
<stop offset="1" stop-color="#FF1514"/>
</linearGradient>
<linearGradient id="paint7_linear_0_212" x1="43.4086" y1="38.004" x2="49" y2="38.004" gradientUnits="userSpaceOnUse">
<stop stop-color="#FF372A"/>
<stop offset="1" stop-color="#FF1514"/>
</linearGradient>
<linearGradient id="paint8_linear_0_212" x1="10.4767" y1="30.004" x2="17" y2="30.004" gradientUnits="userSpaceOnUse">
<stop stop-color="#FF372A"/>
<stop offset="1" stop-color="#FF1514"/>
</linearGradient>
<linearGradient id="paint9_linear_0_212" x1="27.4767" y1="30.004" x2="34" y2="30.004" gradientUnits="userSpaceOnUse">
<stop stop-color="#FF372A"/>
<stop offset="1" stop-color="#FF1514"/>
</linearGradient>
<linearGradient id="paint10_linear_0_212" x1="43.4086" y1="46.5047" x2="49" y2="46.5047" gradientUnits="userSpaceOnUse">
<stop stop-color="#FF372A"/>
<stop offset="1" stop-color="#FF1514"/>
</linearGradient>
<linearGradient id="paint11_linear_0_212" x1="19.4767" y1="30.004" x2="26" y2="30.004" gradientUnits="userSpaceOnUse">
<stop stop-color="#FF372A"/>
<stop offset="1" stop-color="#FF1514"/>
</linearGradient>
<linearGradient id="paint12_linear_0_212" x1="35.4767" y1="30.004" x2="42" y2="30.004" gradientUnits="userSpaceOnUse">
<stop stop-color="#FF372A"/>
<stop offset="1" stop-color="#FF1514"/>
</linearGradient>
<linearGradient id="paint13_linear_0_212" x1="10.4767" y1="38.004" x2="17" y2="38.004" gradientUnits="userSpaceOnUse">
<stop stop-color="#FF372A"/>
<stop offset="1" stop-color="#FF1514"/>
</linearGradient>
<linearGradient id="paint14_linear_0_212" x1="27.4767" y1="38.004" x2="34" y2="38.004" gradientUnits="userSpaceOnUse">
<stop stop-color="#FF372A"/>
<stop offset="1" stop-color="#FF1514"/>
</linearGradient>
<linearGradient id="paint15_linear_0_212" x1="35.4767" y1="38.004" x2="42" y2="38.004" gradientUnits="userSpaceOnUse">
<stop stop-color="#FF372A"/>
<stop offset="1" stop-color="#FF1514"/>
</linearGradient>
<linearGradient id="paint16_linear_0_212" x1="27.4767" y1="46.004" x2="34" y2="46.004" gradientUnits="userSpaceOnUse">
<stop stop-color="#FF372A"/>
<stop offset="1" stop-color="#FF1514"/>
</linearGradient>
<linearGradient id="paint17_linear_0_212" x1="10.4767" y1="46.5047" x2="17" y2="46.5047" gradientUnits="userSpaceOnUse">
<stop stop-color="#FF372A"/>
<stop offset="1" stop-color="#FF1514"/>
</linearGradient>
<linearGradient id="paint18_linear_0_212" x1="35.4767" y1="46.5047" x2="42" y2="46.5047" gradientUnits="userSpaceOnUse">
<stop stop-color="#FF372A"/>
<stop offset="1" stop-color="#FF1514"/>
</linearGradient>
<linearGradient id="paint19_linear_0_212" x1="19.4767" y1="38.004" x2="26" y2="38.004" gradientUnits="userSpaceOnUse">
<stop stop-color="#FF372A"/>
<stop offset="1" stop-color="#FF1514"/>
</linearGradient>
<linearGradient id="paint20_linear_0_212" x1="19.4767" y1="46.5047" x2="26" y2="46.5047" gradientUnits="userSpaceOnUse">
<stop stop-color="#FF372A"/>
<stop offset="1" stop-color="#FF1514"/>
</linearGradient>
<clipPath id="clip0_0_212">
<rect width="60" height="59" fill="white"/>
</clipPath>
</defs>
</svg>
